<svg width="35" height="34" viewBox="0 0 35 34" fill="none" xmlns="http://www.w3.org/2000/svg">
<path d="M18.3958 34C13.4684 34 8.84507 32.1448 5.37737 28.7763C1.90966 25.4078 4.30826e-07 20.9163 4.30826e-07 16.1297C-0.000735143 12.8276 0.940458 9.58995 2.71911 6.77604C4.49777 3.96212 7.04431 1.68203 10.0761 0.188841C10.388 0.0343823 10.7398 -0.0274083 11.0877 0.0111822C11.4355 0.0497726 11.7639 0.187035 12.032 0.405833C12.3 0.624632 12.4957 0.915275 12.5948 1.24148C12.6938 1.56769 12.6918 1.915 12.5888 2.24008C11.7237 4.95461 11.6387 7.84721 12.343 10.6053C13.0472 13.3634 14.514 15.882 16.5848 17.8891C18.0708 19.3435 19.8391 20.497 21.7872 21.283C23.7353 22.069 25.8245 22.4718 27.9339 22.4681C29.5476 22.4693 31.1523 22.2342 32.6938 21.7707C33.0285 21.6706 33.3861 21.6686 33.7219 21.7648C34.0577 21.8609 34.357 22.0511 34.5822 22.3115C34.8075 22.5719 34.9488 22.891 34.9885 23.2289C35.0282 23.5669 34.9645 23.9087 34.8055 24.2117C33.2684 27.1568 30.9212 29.6306 28.0245 31.3585C25.1278 33.0863 21.795 34.0007 18.3958 34V34ZM10.0124 2.81717C7.66144 4.20672 5.7194 6.16214 4.37415 8.49428C3.02891 10.8264 2.32599 13.4563 2.33339 16.1297C2.33339 24.7335 9.53889 31.7333 18.3958 31.7333C21.1477 31.7405 23.855 31.0577 26.2558 29.7509C28.6565 28.444 30.6695 26.5575 32.0999 24.2737C30.7339 24.5808 29.3362 24.7356 27.9341 24.735C25.5181 24.7395 23.1252 24.2784 20.894 23.3785C18.6627 22.4785 16.6373 21.1576 14.9351 19.4921C12.7237 17.348 11.1113 14.6919 10.25 11.7744C9.38868 8.85688 9.30692 5.7743 10.0124 2.81759V2.81717Z" fill="white"/>
</svg>
